<svg width="1515" height="551" viewBox="0 0 1515 551" fill="none" xmlns="http://www.w3.org/2000/svg">
<path d="M-161.021 416.568C-180.072 445.374 -234.854 485.701 -301.582 416.568C-328.356 429.428 -389.626 440.641 -420.518 382.619C-457.074 392.392 -531.114 394.655 -534.821 325.522C-539.455 239.106 -452.955 234.477 -428.241 248.365C-421.548 200.527 -383.447 117.814 -284.591 169.664C-279.957 135.715 -253.699 74.9149 -185.735 103.309C-187.28 66.7876 -172.142 -3.78573 -99.2361 6.09042C-26.3297 15.9666 -12.2221 28.7233 -14.2816 33.8671C21.2448 2.48977 108.362 -35.2659 172.618 64.7301C181.371 79.6472 191.772 118.74 163.35 155.776C193.728 135.715 264.678 115.963 305.456 197.441C337.572 261.612 329.639 287.878 316.519 296.141C337.275 291.654 364.677 293.469 362.607 325.522C383.202 333.238 418.214 357.003 393.5 390.335C368.786 423.667 324.506 415.539 305.456 407.309C292.584 415.539 260.662 427.062 235.948 407.309C217.927 435.6 164.895 479.529 96.9315 428.913C52.1373 470.064 -62.165 525.206 -161.021 416.568Z" fill="white"/>
<path d="M51.9789 438.568C32.9285 467.374 -21.8542 507.701 -88.5821 438.568C-115.356 451.428 -176.626 462.641 -207.518 404.619C-244.074 414.392 -318.114 416.655 -321.821 347.522C-326.455 261.106 -239.955 256.477 -215.241 270.365C-208.548 222.527 -170.447 139.814 -71.5912 191.664C-66.9573 157.715 -40.6987 96.9149 27.2649 125.309C25.7202 88.7876 40.8576 18.2143 113.764 28.0904C186.67 37.9666 200.778 50.7233 198.718 55.8671C234.245 24.4898 321.362 -13.2659 385.618 86.7301C394.371 101.647 404.772 140.74 376.35 177.776C406.728 157.715 477.678 137.963 518.456 219.441C550.572 283.612 542.639 309.878 529.519 318.141C550.275 313.654 577.677 315.469 575.607 347.522C596.202 355.238 631.214 379.003 606.5 412.335C581.786 445.667 537.506 437.539 518.456 429.309C505.584 437.539 473.662 449.062 448.948 429.309C430.927 457.6 377.895 501.529 309.932 450.913C265.137 492.064 150.835 547.206 51.9789 438.568Z" fill="white"/>
<path d="M628.979 437.568C609.928 466.374 555.146 506.701 488.418 437.568C461.644 450.428 400.374 461.641 369.482 403.619C332.926 413.392 258.886 415.655 255.179 346.522C250.545 260.106 337.045 255.477 361.759 269.365C368.452 221.527 406.553 138.814 505.409 190.664C510.043 156.715 536.301 95.9149 604.265 124.309C602.72 87.7876 617.858 17.2143 690.764 27.0904C763.67 36.9666 777.778 49.7233 775.718 54.8671C811.245 23.4898 898.362 -14.2659 962.618 85.7301C971.371 100.647 981.772 139.74 953.35 176.776C983.728 156.715 1054.68 136.963 1095.46 218.441C1127.57 282.612 1119.64 308.878 1106.52 317.141C1127.27 312.654 1154.68 314.469 1152.61 346.522C1173.2 354.238 1208.21 378.003 1183.5 411.335C1158.79 444.667 1114.51 436.539 1095.46 428.309C1082.58 436.539 1050.66 448.062 1025.95 428.309C1007.93 456.6 954.895 500.529 886.932 449.913C842.137 491.064 727.835 546.206 628.979 437.568Z" fill="white"/>
<path d="M357.979 441.568C338.928 470.374 284.146 510.701 217.418 441.568C190.644 454.428 129.374 465.641 98.4817 407.619C61.9255 417.392 -12.1136 419.655 -15.8207 350.522C-20.4546 264.106 66.0445 259.477 90.7585 273.365C97.4519 225.527 135.553 142.814 234.409 194.664C239.043 160.715 265.301 99.9149 333.265 128.309C331.72 91.7876 346.858 21.2143 419.764 31.0904C492.67 40.9666 506.778 53.7233 504.718 58.8671C540.245 27.4898 627.362 -10.2659 691.618 89.7301C700.371 104.647 710.772 143.74 682.35 180.776C712.728 160.715 783.678 140.963 824.456 222.441C856.572 286.612 848.639 312.878 835.519 321.141C856.275 316.654 883.677 318.469 881.607 350.522C902.202 358.238 937.214 382.003 912.5 415.335C887.786 448.667 843.506 440.539 824.456 432.309C811.584 440.539 779.662 452.062 754.948 432.309C736.927 460.6 683.895 504.529 615.932 453.913C571.137 495.064 456.835 550.206 357.979 441.568Z" fill="white"/>
<path d="M357.979 441.568C338.929 470.374 284.146 510.701 217.418 441.568C190.644 454.428 129.374 465.641 98.4817 407.619C61.9255 417.392 -12.1136 419.655 -15.8207 350.522C-20.4546 264.106 66.0445 259.477 90.7585 273.365C97.4519 225.527 135.553 142.814 234.409 194.664C239.043 160.715 265.301 99.9149 333.265 128.309C331.72 91.7876 346.858 21.2143 419.764 31.0904C492.67 40.9666 506.778 53.7233 504.718 58.8671C540.245 27.4898 627.362 -10.2659 691.618 89.7301C700.371 104.647 710.772 143.74 682.35 180.776C712.728 160.715 783.678 140.963 824.456 222.441C865.234 303.919 841.447 324.289 824.456 324.289C844.536 317.087 884.079 312.252 881.607 350.522C902.202 358.238 937.214 382.003 912.5 415.335C887.786 448.667 843.506 440.539 824.456 432.309C811.584 440.539 779.662 452.062 754.948 432.309C736.927 460.6 683.895 504.529 615.931 453.913C571.137 495.064 456.835 550.206 357.979 441.568Z" stroke="black" stroke-width="6"/>
<path d="M1284.98 430.568C1265.93 459.374 1211.15 499.701 1144.42 430.568C1117.64 443.428 1056.37 454.641 1025.48 396.619C988.926 406.392 914.886 408.655 911.179 339.522C906.545 253.106 993.045 248.477 1017.76 262.365C1024.45 214.527 1062.55 131.814 1161.41 183.664C1166.04 149.715 1192.3 88.9149 1260.26 117.309C1258.72 80.7876 1273.86 10.2143 1346.76 20.0904C1419.67 29.9666 1433.78 42.7233 1431.72 47.8671C1467.24 16.4898 1554.36 -21.2659 1618.62 78.7301C1627.37 93.6472 1637.77 132.74 1609.35 169.776C1639.73 149.715 1710.68 129.963 1751.46 211.441C1783.57 275.612 1775.64 301.878 1762.52 310.141C1783.27 305.654 1810.68 307.469 1808.61 339.522C1829.2 347.238 1864.21 371.003 1839.5 404.335C1814.79 437.667 1770.51 429.539 1751.46 421.309C1738.58 429.539 1706.66 441.062 1681.95 421.309C1663.93 449.6 1610.9 493.529 1542.93 442.913C1498.14 484.064 1383.83 539.206 1284.98 430.568Z" fill="white"/>
<path d="M930.979 484.568C911.928 513.374 857.146 553.701 790.418 484.568C763.644 497.428 702.374 508.641 671.482 450.619C634.926 460.392 560.886 462.655 557.179 393.522C552.545 307.106 639.045 302.477 663.759 316.365C670.452 268.527 708.553 185.814 807.409 237.664C812.043 203.715 838.301 142.915 906.265 171.309C904.72 134.788 919.858 64.2143 992.764 74.0904C1065.67 83.9666 1079.78 96.7233 1077.72 101.867C1113.24 70.4898 1200.36 32.7341 1264.62 132.73C1273.37 147.647 1283.77 186.74 1255.35 223.776C1285.73 203.715 1356.68 183.963 1397.46 265.441C1429.57 329.612 1421.64 355.878 1408.52 364.141C1429.27 359.654 1456.68 361.469 1454.61 393.522C1475.2 401.238 1510.21 425.003 1485.5 458.335C1460.79 491.667 1416.51 483.539 1397.46 475.309C1384.58 483.539 1352.66 495.062 1327.95 475.309C1309.93 503.6 1256.9 547.529 1188.93 496.913C1144.14 538.064 1029.83 593.206 930.979 484.568Z" fill="white"/>
<path d="M930.979 484.568C911.929 513.374 857.146 553.701 790.418 484.568C763.644 497.428 702.374 508.641 671.482 450.619C634.926 460.392 560.886 462.655 557.179 393.522C552.545 307.106 639.045 302.477 663.759 316.365C670.452 268.527 708.553 185.814 807.409 237.664C812.043 203.715 838.301 142.915 906.265 171.309C904.72 134.788 919.858 64.2143 992.764 74.0904C1065.67 83.9666 1079.78 96.7233 1077.72 101.867C1113.24 70.4898 1200.36 32.7341 1264.62 132.73C1273.37 147.647 1283.77 186.74 1255.35 223.776C1285.73 203.715 1356.68 183.963 1397.46 265.441C1438.23 346.919 1414.45 367.289 1397.46 367.289C1417.54 360.087 1457.08 355.252 1454.61 393.522C1475.2 401.238 1510.21 425.003 1485.5 458.335C1460.79 491.667 1416.51 483.539 1397.46 475.309C1384.58 483.539 1352.66 495.062 1327.95 475.309C1309.93 503.6 1256.9 547.529 1188.93 496.913C1144.14 538.064 1029.83 593.206 930.979 484.568Z" stroke="black" stroke-width="6"/>
</svg>
