<svg width="1515" height="548" viewBox="0 0 1515 548" fill="none" xmlns="http://www.w3.org/2000/svg">
<path d="M-32.0211 416.568C-51.0715 445.374 -105.854 485.701 -172.582 416.568C-199.356 429.428 -260.626 440.641 -291.518 382.619C-328.074 392.392 -402.114 394.655 -405.821 325.522C-410.455 239.106 -323.955 234.477 -299.241 248.365C-292.548 200.527 -254.447 117.814 -155.591 169.664C-150.957 135.715 -124.699 74.9149 -56.7351 103.309C-58.2798 66.7876 -43.1424 -3.78573 29.7639 6.09042C102.67 15.9666 116.778 28.7233 114.718 33.8671C150.245 2.48977 237.362 -35.2659 301.618 64.7301C310.371 79.6472 320.772 118.74 292.35 155.776C322.728 135.715 393.678 115.963 434.456 197.441C466.572 261.612 458.639 287.878 445.519 296.141C466.275 291.654 493.677 293.469 491.607 325.522C512.202 333.238 547.214 357.003 522.5 390.335C497.786 423.667 453.506 415.539 434.456 407.309C421.584 415.539 389.662 427.062 364.948 407.309C346.927 435.6 293.895 479.529 225.932 428.913C181.137 470.064 66.835 525.206 -32.0211 416.568Z" fill="white"/>
<path d="M180.979 438.568C161.928 467.374 107.146 507.701 40.4179 438.568C13.6444 451.428 -47.6258 462.641 -78.5183 404.619C-115.074 414.392 -189.114 416.655 -192.821 347.522C-197.455 261.106 -110.955 256.477 -86.2415 270.365C-79.5481 222.527 -41.4473 139.814 57.4088 191.664C62.0427 157.715 88.3013 96.9149 156.265 125.309C154.72 88.7876 169.858 18.2143 242.764 28.0904C315.67 37.9666 329.778 50.7233 327.718 55.8671C363.245 24.4898 450.362 -13.2659 514.618 86.7301C523.371 101.647 533.772 140.74 505.35 177.776C535.728 157.715 606.678 137.963 647.456 219.441C679.572 283.612 671.639 309.878 658.519 318.141C679.275 313.654 706.677 315.469 704.607 347.522C725.202 355.238 760.214 379.003 735.5 412.335C710.786 445.667 666.506 437.539 647.456 429.309C634.584 437.539 602.662 449.062 577.948 429.309C559.927 457.6 506.895 501.529 438.932 450.913C394.137 492.064 279.835 547.206 180.979 438.568Z" fill="white"/>
<path d="M486.979 441.568C467.928 470.374 413.146 510.701 346.418 441.568C319.644 454.428 258.374 465.641 227.482 407.619C190.926 417.392 116.886 419.655 113.179 350.522C108.545 264.106 195.045 259.477 219.759 273.365C226.452 225.527 264.553 142.814 363.409 194.664C368.043 160.715 394.301 99.9149 462.265 128.309C460.72 91.7876 475.858 21.2143 548.764 31.0904C621.67 40.9666 635.778 53.7233 633.718 58.8671C669.245 27.4898 756.362 -10.2659 820.618 89.7301C829.371 104.647 839.772 143.74 811.35 180.776C841.728 160.715 912.678 140.963 953.456 222.441C985.572 286.612 977.639 312.878 964.519 321.141C985.275 316.654 1012.68 318.469 1010.61 350.522C1031.2 358.238 1066.21 382.003 1041.5 415.335C1016.79 448.667 972.506 440.539 953.456 432.309C940.584 440.539 908.662 452.062 883.948 432.309C865.927 460.6 812.895 504.529 744.932 453.913C700.137 495.064 585.835 550.206 486.979 441.568Z" fill="white"/>
<path d="M797.979 445.568C778.928 474.374 724.146 514.701 657.418 445.568C630.644 458.428 569.374 469.641 538.482 411.619C501.926 421.392 427.886 423.655 424.179 354.522C419.545 268.106 506.045 263.477 530.759 277.365C537.452 229.527 575.553 146.814 674.409 198.664C679.043 164.715 705.301 103.915 773.265 132.309C771.72 95.7876 786.858 25.2143 859.764 35.0904C932.67 44.9666 946.778 57.7233 944.718 62.8671C980.245 31.4898 1067.36 -6.26595 1131.62 93.7301C1140.37 108.647 1150.77 147.74 1122.35 184.776C1152.73 164.715 1223.68 144.963 1264.46 226.441C1296.57 290.612 1288.64 316.878 1275.52 325.141C1296.27 320.654 1323.68 322.469 1321.61 354.522C1342.2 362.238 1377.21 386.003 1352.5 419.335C1327.79 452.667 1283.51 444.539 1264.46 436.309C1251.58 444.539 1219.66 456.062 1194.95 436.309C1176.93 464.6 1123.9 508.529 1055.93 457.913C1011.14 499.064 896.835 554.206 797.979 445.568Z" fill="white"/>
<path d="M1059.98 484.568C1040.93 513.374 986.146 553.701 919.418 484.568C892.644 497.428 831.374 508.641 800.482 450.619C763.926 460.392 689.886 462.655 686.179 393.522C681.545 307.106 768.045 302.477 792.759 316.365C799.452 268.527 837.553 185.814 936.409 237.664C941.043 203.715 967.301 142.915 1035.26 171.309C1033.72 134.788 1048.86 64.2143 1121.76 74.0904C1194.67 83.9666 1208.78 96.7233 1206.72 101.867C1242.24 70.4898 1329.36 32.7341 1393.62 132.73C1402.37 147.647 1412.77 186.74 1384.35 223.776C1414.73 203.715 1485.68 183.963 1526.46 265.441C1558.57 329.612 1550.64 355.878 1537.52 364.141C1558.27 359.654 1585.68 361.469 1583.61 393.522C1604.2 401.238 1639.21 425.003 1614.5 458.335C1589.79 491.667 1545.51 483.539 1526.46 475.309C1513.58 483.539 1481.66 495.062 1456.95 475.309C1438.93 503.6 1385.9 547.529 1317.93 496.913C1273.14 538.064 1158.83 593.206 1059.98 484.568Z" fill="white"/>
<path d="M1413.98 430.568C1394.93 459.374 1340.15 499.701 1273.42 430.568C1246.64 443.428 1185.37 454.641 1154.48 396.619C1117.93 406.392 1043.89 408.655 1040.18 339.522C1035.55 253.106 1122.04 248.477 1146.76 262.365C1153.45 214.527 1191.55 131.814 1290.41 183.664C1295.04 149.715 1321.3 88.9149 1389.26 117.309C1387.72 80.7876 1402.86 10.2143 1475.76 20.0904C1548.67 29.9666 1562.78 42.7233 1560.72 47.8671C1596.24 16.4898 1683.36 -21.2659 1747.62 78.7301C1756.37 93.6472 1766.77 132.74 1738.35 169.776C1768.73 149.715 1839.68 129.963 1880.46 211.441C1912.57 275.612 1904.64 301.878 1891.52 310.141C1912.27 305.654 1939.68 307.469 1937.61 339.522C1958.2 347.238 1993.21 371.003 1968.5 404.335C1943.79 437.667 1899.51 429.539 1880.46 421.309C1867.58 429.539 1835.66 441.062 1810.95 421.309C1792.93 449.6 1739.9 493.529 1671.93 442.913C1627.14 484.064 1512.83 539.206 1413.98 430.568Z" fill="white"/>
</svg>
